# xmcd CD database file
#
# Track frame offsets:
#	150
#	17722
#	29497
#
# Disc length: 638 seconds
#
# Revision: 0
# Processed by: cddbd v1.5PL3 Copyright (c) Steve Scherf et al.
# Submitted via: CDex 1.50beta10
#
DISCID=1c027c03
DTITLE=3B・LAB.★ - 一期一会
DYEAR=2003
DGENRE=Pop
TTITLE0=一期一会
TTITLE1=Always
TTITLE2=卒業哀歌
EXTD=YEAR: 2003
EXTT0=
EXTT1=
EXTT2=
PLAYORDER=
